<?xml version="1.0" encoding="UTF-8" standalone="no"?>
<!-- Created with Inkscape (http://www.inkscape.org/) -->

<svg
   xmlns:dc="http://purl.org/dc/elements/1.1/"
   xmlns:cc="http://creativecommons.org/ns#"
   xmlns:rdf="http://www.w3.org/1999/02/22-rdf-syntax-ns#"
   xmlns:svg="http://www.w3.org/2000/svg"
   xmlns="http://www.w3.org/2000/svg"
   xmlns:sodipodi="http://sodipodi.sourceforge.net/DTD/sodipodi-0.dtd"
   xmlns:inkscape="http://www.inkscape.org/namespaces/inkscape"
   version="1.1"
   id="svg2"
   width="2754.7036"
   height="2945.9302"
   viewBox="0 0 2754.7036 2945.9302"
   sodipodi:docname="driveLOGO.svg"
   inkscape:version="0.92.3 (2405546, 2018-03-11)">
  <metadata
     id="metadata8">
    <rdf:RDF>
      <cc:Work
         rdf:about="">
        <dc:format>image/svg+xml</dc:format>
        <dc:type
           rdf:resource="http://purl.org/dc/dcmitype/StillImage" />
        <dc:title></dc:title>
      </cc:Work>
    </rdf:RDF>
  </metadata>
  <defs
     id="defs6" />
  <sodipodi:namedview
     pagecolor="#ffffff"
     bordercolor="#666666"
     borderopacity="1"
     objecttolerance="10"
     gridtolerance="10"
     guidetolerance="10"
     inkscape:pageopacity="0"
     inkscape:pageshadow="2"
     inkscape:window-width="1366"
     inkscape:window-height="715"
     id="namedview4"
     showgrid="false"
     showguides="true"
     inkscape:guide-bbox="true"
     fit-margin-top="0"
     fit-margin-left="0"
     fit-margin-right="0"
     fit-margin-bottom="0"
     inkscape:zoom="0.11895161"
     inkscape:cx="3396.7989"
     inkscape:cy="1011.9369"
     inkscape:window-x="-8"
     inkscape:window-y="22"
     inkscape:window-maximized="1"
     inkscape:current-layer="svg2" />
  <g
     id="g4795"
     transform="matrix(7.8423258,0,0,7.8445625,7876.0058,-4423.9868)"
     inkscape:export-xdpi="133.82201"
     inkscape:export-ydpi="133.82201">
    <path
       style="fill:#282923;fill-opacity:1;stroke-width:4.363626"
       d="m -2766.6738,-300.59766 c -90.4756,-0.0462 -180.9395,0.2168 -135.6992,0.2168 -155.2844,-0.0533 -318.6348,0.7016 -473.9063,0.19922 l 491.0527,453.23047 V 67.333984 h 254.2871 c 297.0017,0 409.616,359.525396 337.9903,632.371096 l 344.2363,317.71682 c 301.0716,-488.44202 94.0637,-1315.96681 -682.2266,-1316.3887 45.2246,-1.22902 -45.2587,-1.58457 -135.7343,-1.63086 z M -3376.2793,438.1543 V 585.82031 733.48047 1367.334 c 157.8427,-0.5105 316.043,0.238 473.8984,0.1562 70.8139,-0.035 141.4292,-0.2343 212.1426,-0.8066 l 158.3281,-1.5352 c 48.2564,-3.1188 94.1543,-10.1117 137.6426,-20.6308 L -2766.5,1000.957 h -118.0488 c -0.2309,0 -0.4464,0.021 -0.6778,0.025 v -0.025 -109.582 z"
       transform="matrix(0.22519336,0,0,0.22512915,-243.97897,631.63036)"
       id="path4788"
       inkscape:connector-curvature="0" />
    <path
       style="fill:#e2b448;fill-opacity:1;stroke-width:4.363626"
       d="M -3376.2793,-152.51367 V -4.8457031 L -2885.2266,448.38281 V 300.71484 Z m 0,295.33398 v 147.65821 l 491.0527,453.23046 V 596.04883 Z m 1041.8906,666.30078 c -17.2371,33.32345 -38.0744,63.70775 -62.4551,90.01758 l 309.1172,285.30663 c 27.0818,-24.2259 52.2219,-50.3446 75.3008,-78.1582 z m -149.6718,157.18555 c -36.4185,18.91967 -77.5237,30.7979 -123.3223,33.84176 l 330.6523,305.1895 c 35.8502,-15.4864 69.6763,-33.5941 101.416,-54.0567 z"
       transform="matrix(0.22519336,0,0,0.22512915,-243.97897,631.63036)"
       id="path4786"
       inkscape:connector-curvature="0" />
  </g>
</svg>
